<?xml version="1.0" encoding="UTF-8" standalone="no"?>
<svg viewBox="0 0 46 46" version="1.1" xmlns="http://www.w3.org/2000/svg">
    <g stroke="none" stroke-width="1" fill="none" fill-rule="evenodd">
        <path d="M31.64,23.205c0,-0.639 -0.057,-1.252 -0.164,-1.841l-13.476,0l0,3.481l7.704,0c-0.332,1.789 -1.341,3.307 -2.859,4.321l0,3.595l4.629,0c2.708,-2.491 4.166,-6.156 4.166,-9.556Z" fill="#4285F4"/>
        <path d="M17.995,31.9c3.872,0 7.124,-1.279 9.5,-3.474l-4.629,-3.595c-1.283,0.859 -2.925,1.366 -4.871,1.366c-3.746,0 -6.918,-2.532 -8.05,-5.931l-4.783,0l0,3.711c2.366,4.698 7.21,7.923 12.833,7.923Z" fill="#34A853"/>
        <path d="M9.95,20.266c-0.288,-0.859 -0.452,-1.777 -0.452,-2.724c0,-0.947 0.164,-1.865 0.452,-2.724l0,-3.711l-4.783,0c-0.971,1.936 -1.522,4.115 -1.522,6.435c0,2.32 0.551,4.499 1.522,6.435l4.783,-3.711Z" fill="#FBBC05"/>
        <path d="M17.995,9.887c2.111,0 4.008,0.726 5.503,2.149l4.108,-4.108c-2.49,-2.321 -5.742,-3.743 -9.611,-3.743c-5.623,0 -10.467,3.225 -12.833,7.923l4.783,3.711c1.132,-3.399 4.304,-5.932 8.05,-5.932Z" fill="#EA4335"/>
    </g>
</svg> 